<svg xmlns="http://www.w3.org/2000/svg" viewBox="0 0 509 141">
<path fill="#DB362D" d="M91.991,104.699 c1.576,5.961 4.119,8.266 8.613,8.266 c4.659,0 7.102,-2.799 7.102,-8.266 l-0,-101.499 h29.184 v101.499 c0,14.307 -1.856,20.506 -9.11,27.762 c-5.228,5.229 -14.871,9.271 -27.047,9.271 c-9.837,0 -19.25,-3.256 -25.253,-9.27 c-5.263,-5.273 -8.154,-10.689 -12.672,-27.764 l-17.908,-67.665 c-1.577,-5.961 -4.119,-8.265 -8.613,-8.265 c-4.66,0 -7.103,2.798 -7.103,8.265 l0,101.5 h-29.184 v-101.5 c0,-14.306 1.857,-20.506 9.111,-27.762 c5.226,-5.227 14.87,-9.271 27.047,-9.271 c9.837,0 19.25,3.257 25.253,9.27 c5.263,5.273 8.154,10.689 12.672,27.764 l17.908,67.665 "/>
<path fill="#DB362D" d="M328.878,138.532 c19.12,0 28.446,-4.062 35.814,-11.389 c8.153,-8.105 12.053,-16.973 12.053,-30.213 c0,-11.699 -4.283,-22.535 -10.804,-29.019 c-8.526,-8.479 -19.116,-11.151 -36.384,-11.151 h-24.187 c-9.242,0 -12.925,-1.117 -15.839,-3.98 c-2.001,-1.964 -2.939,-4.885 -2.939,-8.328 c0,-3.559 0.857,-7.074 3.303,-9.475 c2.171,-2.131 5.13,-3.109 10.816,-3.109 l69.903,-0 v-28.668 h-64.564 c-19.12,0 -28.445,4.063 -35.814,11.389 c-8.152,8.105 -12.053,16.972 -12.053,30.212 c-0,11.701 4.283,22.536 10.804,29.019 c8.527,8.479 19.116,11.152 36.384,11.152 l24.188,0.002 c9.242,0 12.925,1.115 15.839,3.979 c2.001,1.965 2.939,4.885 2.939,8.328 c-0,3.559 -0.857,7.074 -3.302,9.475 c-2.172,2.131 -5.131,3.109 -10.817,3.109 l-72.094,0 l-27.651,-86.509 c-1.918,-6 -4.66,-11.094 -8.139,-14.488 c-5.971,-5.821 -13.007,-8.868 -24.11,-8.868 s-18.14,3.047 -24.108,8.867 c-3.48,3.395 -6.221,8.488 -8.139,14.488 l-36.815,115.177 h30.166 l33.704,-105.437 c0.372,-1.164 0.723,-2.152 1.263,-2.811 c0.926,-1.127 2.208,-1.719 3.931,-1.719 s3.004,0.592 3.931,1.719 c0.54,0.658 0.891,1.646 1.262,2.811 l33.704,105.437 h87.755 "/>
<path fill="#DB362D" d="M478.038,138.532 l-33.704,-105.436 c-0.372,-1.164 -0.723,-2.152 -1.263,-2.811 c-0.926,-1.127 -2.207,-1.719 -3.931,-1.719 c-1.723,0 -3.004,0.592 -3.931,1.719 c-0.539,0.658 -0.891,1.646 -1.262,2.811 l-33.703,105.437 h-30.167 l36.815,-115.177 c1.918,-6 4.66,-11.094 8.139,-14.488 c5.971,-5.821 13.007,-8.868 24.11,-8.868 s18.14,3.047 24.109,8.867 c3.479,3.395 6.221,8.488 8.14,14.488 l36.814,115.177 h-30.166 "/>
</svg>
