<svg xmlns="http://www.w3.org/2000/svg" viewBox="0 0 509 142">
<path fill="#DB362D" d="M91.991,104.699 C93.567,110.66 96.11,112.965 100.604,112.965 C105.263,112.965 107.706,110.166 107.706,104.699 V3.2 H136.89 V104.699 C136.89,119.006 135.034,125.205 127.78,132.461 C122.552,137.69 112.909,141.732 100.733,141.732 C90.896,141.732 81.483,138.476 75.48,132.462 C70.217,127.189 67.326,121.773 62.808,104.698 L44.9,37.033 C43.323,31.072 40.781,28.768 36.287,28.768 C31.627,28.768 29.184,31.566 29.184,37.033 V138.533 H0 V37.033 C0,22.727 1.857,16.527 9.111,9.271 C14.337,4.044 23.981,0 36.158,0 C45.995,0 55.408,3.257 61.411,9.27 C66.674,14.543 69.565,19.959 74.083,37.034 L91.991,104.699 V104.699 "/>
<path fill="#DB362D" d="M328.878,138.532 C347.998,138.532 357.324,134.47 364.692,127.143 C372.845,119.038 376.745,110.17 376.745,96.93 C376.745,85.231 372.462,74.395 365.941,67.911 C357.415,59.432 346.825,56.76 329.557,56.76 H305.37 C296.128,56.76 292.445,55.643 289.531,52.78 C287.53,50.816 286.592,47.895 286.592,44.452 C286.592,40.893 287.449,37.378 289.895,34.977 C292.066,32.846 295.025,31.868 300.711,31.868 H370.614 V3.2 H306.05 C286.93,3.2 277.605,7.263 270.236,14.589 C262.084,22.694 258.183,31.561 258.183,44.801 C258.183,56.502 262.466,67.337 268.987,73.82 C277.514,82.299 288.103,84.972 305.371,84.972 L329.559,84.974 C338.801,84.974 342.484,86.089 345.398,88.953 C347.399,90.918 348.337,93.838 348.337,97.281 C348.337,100.84 347.48,104.355 345.035,106.756 C342.863,108.887 339.904,109.865 334.218,109.865 H262.124 L234.473,23.356 C232.555,17.356 229.813,12.262 226.334,8.868 C220.363,3.047 213.327,0 202.224,0 S184.084,3.047 178.116,8.867 C174.636,12.262 171.895,17.355 169.977,23.355 L133.162,138.532 H163.328 L197.032,33.095 C197.404,31.931 197.755,30.943 198.295,30.284 C199.221,29.157 200.503,28.565 202.226,28.565 S205.23,29.157 206.157,30.284 C206.697,30.942 207.048,31.93 207.419,33.095 L241.123,138.532 H328.878 V138.532 "/>
<path fill="#DB362D" d="M478.038,138.532 L444.334,33.096 C443.962,31.932 443.611,30.944 443.071,30.285 C442.145,29.158 440.864,28.566 439.14,28.566 C437.417,28.566 436.136,29.158 435.209,30.285 C434.67,30.943 434.318,31.931 433.947,33.096 L400.244,138.533 H370.077 L406.892,23.356 C408.81,17.356 411.552,12.262 415.031,8.868 C421.002,3.047 428.038,0 439.141,0 S457.281,3.047 463.25,8.867 C466.729,12.262 469.471,17.355 471.39,23.355 L508.204,138.532 H478.038 V138.532 "/>
</svg>
